# xmcd
#
# Track frame offsets:
#	150
#	2760
#	23372
#	41037
#	61980
#	63622
#	82427
#	106112
#	127929
#	132730
#	149457
#	161535
#	182990
#	202417
#	219135
#	238609
#	244960
#	266657
#	287207
#	306682
#	310630
#	326235
#
# Disc length: 4557 seconds
#
# Revision: 0
# Processed by: cddbd v1.5.2PL0 Copyright (c) Steve Scherf et al.
# Submitted via: dBpowerAMP V4.0
#
DISCID=5811cb16
DTITLE=Cunnie Williams - Star Hotel
DYEAR=1999
DGENRE=R&B
TTITLE0=VIP Lounge (Interlude)
TTITLE1=World Celebration
TTITLE2=Spinning Wheel
TTITLE3=Saturday feat. Monie Love
TTITLE4=On The Way To... (Interlude)
TTITLE5=Star Hotel
TTITLE6=Barry's Mood
TTITLE7=Here I Go Again
TTITLE8=New York (Interlude)
TTITLE9=Can I Rock?
TTITLE10=Free My Mind (Interlude)
TTITLE11=Black Boy
TTITLE12=By My Side feat. Buddha Monk
TTITLE13=I'll be Over
TTITLE14=Somtehing's Just Ain't Right
TTITLE15=VB Vibe (Interlude)
TTITLE16=Mad About You
TTITLE17=Spìrit
TTITLE18=Believe
TTITLE19=Mad Outro
TTITLE20=Saturday feat. Monie Love (Mousse T's House Edit)
TTITLE21=A World Celebration (Mousse T's Vocal Party Edit)
EXTD=
EXTT0=
EXTT1=
EXTT2=
EXTT3=
EXTT4=
EXTT5=
EXTT6=
EXTT7=
EXTT8=
EXTT9=
EXTT10=
EXTT11=
EXTT12=
EXTT13=
EXTT14=
EXTT15=
EXTT16=
EXTT17=
EXTT18=
EXTT19=
EXTT20=
EXTT21=
PLAYORDER=
